<?xml version="1.0" standalone="no"?>
<!DOCTYPE svg PUBLIC "-//W3C//DTD SVG 20010904//EN"
 "http://www.w3.org/TR/2001/REC-SVG-20010904/DTD/svg10.dtd">
<svg version="1.0" xmlns="http://www.w3.org/2000/svg"
 width="872.000000pt" height="872.000000pt" viewBox="0 0 872.000000 872.000000"
 preserveAspectRatio="xMidYMid meet">
<metadata>
Created by potrace 1.11, written by Peter Selinger 2001-2013
</metadata>
<g transform="translate(0.000000,872.000000) scale(0.100000,-0.100000)"
fill="#000000" stroke="none">
<path d="M0 5045 c0 -1678 3 -2554 10 -2550 5 3 24 7 42 9 18 2 47 6 63 9 17
4 47 9 69 12 21 3 41 7 45 9 3 2 31 7 62 10 31 4 66 8 77 11 25 4 75 12 132
20 25 3 70 10 100 15 30 6 78 12 105 16 55 6 71 8 160 20 33 4 77 8 97 8 21 1
38 3 38 7 0 3 10 5 23 5 26 1 140 13 182 20 17 3 53 7 80 9 28 2 70 7 95 10
25 3 65 8 90 10 25 2 72 7 105 10 33 4 76 9 95 10 19 1 35 3 35 4 0 1 32 3 70
6 39 2 93 6 120 9 84 8 166 15 260 22 50 3 113 8 140 10 28 2 86 6 130 9 44 2
118 7 165 9 47 3 137 8 200 12 63 3 140 7 170 9 30 2 87 4 125 6 l70 2 3 -39
c4 -44 4 -60 3 -89 -1 -11 -1 -60 0 -110 0 -49 0 -94 -1 -100 -1 -5 -2 -12 -1
-15 1 -3 3 -77 5 -165 3 -88 7 -176 10 -195 12 -76 71 -266 87 -280 3 -3 11
-21 19 -40 8 -19 17 -37 21 -40 3 -3 13 -18 22 -35 31 -60 148 -200 223 -265
46 -40 162 -120 173 -120 6 0 11 -4 11 -10 0 -5 6 -10 14 -10 8 0 22 -8 32
-17 10 -10 19 -17 21 -15 2 1 22 -7 46 -17 52 -24 149 -59 179 -65 13 -3 50
-12 83 -20 103 -25 280 -34 390 -21 28 3 64 8 80 10 97 11 355 96 355 116 0 5
3 9 8 8 15 -2 52 14 52 22 0 5 6 9 13 9 26 0 151 95 237 180 94 92 150 164
196 250 16 30 32 56 37 58 4 2 7 10 7 18 0 8 7 28 15 44 18 34 60 178 70 240
4 25 9 191 11 370 1 179 3 329 3 333 1 8 115 5 366 -8 199 -10 260 -14 260
-15 0 0 38 -3 85 -5 47 -3 114 -7 150 -10 36 -3 92 -7 125 -10 33 -3 96 -8
140 -11 44 -3 100 -8 125 -10 25 -2 77 -6 115 -9 39 -2 70 -5 70 -5 0 -3 78
-11 127 -13 32 -1 58 -4 58 -7 0 -3 17 -6 38 -6 20 -1 66 -4 102 -8 36 -3 85
-8 110 -11 25 -2 59 -6 75 -9 17 -3 57 -8 90 -11 57 -5 79 -8 158 -20 17 -2
55 -7 82 -10 28 -3 64 -7 80 -10 17 -2 50 -7 75 -10 25 -3 56 -7 70 -11 14 -3
45 -7 70 -9 25 -2 56 -6 70 -9 14 -3 42 -7 63 -10 20 -3 54 -9 75 -12 20 -3
48 -7 62 -10 14 -2 47 -7 74 -10 28 -3 54 -8 60 -11 5 -4 21 -7 35 -8 43 -3
113 -15 122 -21 5 -3 9 1135 9 2550 l0 2556 -37 -5 c-21 -3 -60 -10 -88 -15
-27 -6 -66 -12 -85 -14 -19 -3 -46 -7 -59 -10 -14 -3 -47 -8 -75 -11 -28 -3
-58 -8 -66 -10 -16 -4 -73 -13 -135 -21 -22 -2 -53 -7 -70 -10 -16 -3 -46 -7
-65 -9 -19 -2 -53 -6 -75 -9 -144 -21 -251 -34 -265 -34 -8 0 -35 -3 -60 -7
-46 -8 -62 -10 -165 -19 -33 -4 -78 -9 -100 -12 -22 -3 -65 -8 -95 -10 -30 -2
-55 -4 -55 -4 0 -1 -16 -3 -35 -5 -19 -2 -66 -7 -105 -11 -38 -3 -86 -8 -105
-10 -19 -2 -74 -6 -121 -8 -47 -3 -97 -7 -110 -10 -23 -5 -106 -12 -250 -21
-66 -4 -175 -11 -299 -20 -136 -10 -412 -24 -585 -30 -71 -2 -193 -7 -270 -10
-520 -20 -1380 -20 -1965 0 -380 13 -772 31 -860 41 -25 2 -92 7 -150 9 -58 3
-121 7 -140 9 -19 2 -87 7 -150 11 -63 4 -124 9 -135 11 -11 2 -56 6 -100 9
-44 3 -96 8 -115 10 -110 13 -150 17 -195 20 -27 2 -70 6 -95 9 -43 5 -93 10
-210 22 -30 3 -66 7 -80 10 -14 2 -50 6 -80 9 -30 3 -68 7 -85 10 -16 2 -68 9
-115 15 -47 5 -96 12 -110 15 -14 2 -45 6 -69 9 -58 7 -129 17 -161 22 -14 2
-43 7 -65 10 -22 3 -51 8 -65 10 -14 3 -38 7 -55 9 -41 4 -107 15 -125 20 -8
2 -37 7 -65 10 -50 7 -63 9 -122 20 l-33 6 0 -2556z"/>
<path d="M6567 2348 c-17 -19 -48 -41 -67 -48 -19 -7 -44 -22 -55 -32 -11 -10
-30 -26 -41 -36 -41 -33 -94 -104 -87 -115 11 -18 14 -36 18 -116 5 -87 -18
-159 -62 -197 l-28 -24 30 -1 c17 -1 35 0 40 1 6 1 66 1 135 0 69 -1 132 -2
140 -1 8 0 95 0 192 1 154 0 177 2 172 15 -4 8 -10 15 -15 15 -5 0 -18 21 -30
48 -27 57 -34 164 -15 225 12 40 11 46 -8 73 -11 16 -29 37 -41 47 -11 10 -33
31 -50 46 -36 33 -90 63 -99 54 -3 -4 -6 0 -6 8 -1 23 -33 57 -63 65 -23 5
-33 0 -60 -28z"/>
</g>
</svg>
