<svg
          id="logo"
          width="436"
          height="324"
          viewBox="0 0 436 324"
          fill="none"
          xmlns="http://www.w3.org/2000/svg"
        >
          <path
            id="monitor"
            fill-rule="evenodd"
            clip-rule="evenodd"
            d="M0 255.245V0C62.1372 10.7775 137.184 17.0765 218 17.0765C298.816 17.0765 373.863 10.7775 436 0V255.245C373.863 244.468 298.816 238.169 218 238.169C137.184 238.169 62.1372 244.468 0 255.245Z"
            fill="black"
          />
          <path
            id="screen"
            fill-rule="evenodd"
            clip-rule="evenodd"
            d="M6 252.457V4C66.4846 14.4909 139.535 20.6223 218.202 20.6223C296.869 20.6223 369.92 14.4909 430.404 4V252.457C369.92 241.966 296.869 235.834 218.202 235.834C139.535 235.834 66.4846 241.966 6 252.457Z"
            fill="#0F1010"
          />
          <path
            id="glare"
            opacity="0.2"
            fill-rule="evenodd"
            clip-rule="evenodd"
            d="M151.569 19.1286C98.3593 16.714 49.0036 11.4589 6 4V252.457C32.4098 247.876 61.2153 244.126 91.838 241.356L151.569 19.1286Z"
            fill="#F3F2F2"
          />
          <path
            id="mouse"
            fill-rule="evenodd"
            clip-rule="evenodd"
            d="M315.604 273.766C319.181 268.092 324.527 264.488 330.5 264.488C336.473 264.488 341.819 268.092 345.396 273.766C344.525 275.589 344 277.937 344 280.5C344 286.298 346.685 290.998 349.998 291H311.002C314.315 290.998 317 286.298 317 280.5C317 277.937 316.475 275.589 315.604 273.766Z"
            fill="#0C0B0B"
          />
          <path
            id="headset"
            fill-rule="evenodd"
            clip-rule="evenodd"
            d="M218.762 96C188.184 96 161.532 117.852 147.545 150.196V158.273C138.777 160.381 132 174.454 132 191.5C132 210.002 139.983 225 149.832 225C159.68 225 167.663 210.002 167.663 191.5C167.663 177.553 163.126 165.596 156.674 160.555C169.671 132.93 192.942 114.522 219.488 114.522C245.447 114.522 268.275 132.126 281.426 158.739C273.375 161.97 267.337 175.41 267.337 191.5C267.337 210.002 275.32 225 285.168 225C295.017 225 303 210.002 303 191.5C303 175.659 297.148 162.386 289.283 158.896V148.621C275.121 117.144 248.841 96 218.762 96Z"
            fill="#FFFDFD"
          />
          <path
            id="head"
            fill-rule="evenodd"
            clip-rule="evenodd"
            d="M278.885 267.575L278.895 267.575L278.893 266.509L278.709 169.543C278.709 169.534 278.709 169.524 278.709 169.515C278.709 169.505 278.709 169.495 278.709 169.486L278.701 165.251L278.532 165.251C276.146 136.048 250.024 113.078 218.195 113.138C186.367 113.198 160.332 136.267 158.056 165.48L157.887 165.48L158.079 266.731C158.079 266.733 158.079 266.735 158.079 266.738C158.079 266.74 158.079 266.742 158.079 266.745L158.081 267.803L158.091 267.803C158.757 298.51 185.612 323.177 218.593 323.114C251.574 323.052 278.335 298.283 278.885 267.575Z"
            fill="#0D0C0C"
          />
          <path
            id="?"
            fill-rule="evenodd"
            clip-rule="evenodd"
            d="M316 290.503C320.529 288.782 323.875 282.714 323.875 275.492C323.875 272.162 323.164 269.077 321.953 266.551C324.361 265.001 327.043 264.096 329.875 264V290.503H316Z"
            fill="#C4C4C4"
          />
          <path
            id="leftclick"
            fill-rule="evenodd"
            clip-rule="evenodd"
            d="M316 290.503C320.529 288.782 323.875 282.714 323.875 275.492C323.875 272.162 323.164 269.077 321.953 266.551C324.361 265.001 327.043 264.096 329.875 264V290.503H316Z"
            fill="#4FDB2C"
          />
          <path
            id="rightclick"
            fill-rule="evenodd"
            clip-rule="evenodd"
            d="M344.875 290.503C340.346 288.782 337 282.714 337 275.492C337 272.162 337.711 269.077 338.922 266.551C336.514 265.001 333.832 264.096 331 264V290.503H344.875Z"
            fill="#4FDB2C"
          />
          <path
            id="scroller"
            d="M335.064 267.628C335.064 271.288 333.206 274.256 330.915 274.256C328.623 274.256 326.766 271.288 326.766 267.628C326.766 263.967 328.623 261 330.915 261C333.206 261 335.064 263.967 335.064 267.628Z"
            fill="#0D0C0C"
          />
        </svg>