<?xml version="1.0" standalone="no"?>
<!DOCTYPE svg PUBLIC "-//W3C//DTD SVG 20010904//EN"
 "http://www.w3.org/TR/2001/REC-SVG-20010904/DTD/svg10.dtd">
<svg version="1.0" xmlns="http://www.w3.org/2000/svg"
 width="245.000000pt" height="245.000000pt" viewBox="0 0 245.000000 245.000000"
 preserveAspectRatio="xMidYMid meet">
<metadata>
Created by potrace 1.11, written by Peter Selinger 2001-2013
</metadata>
<g transform="translate(0.000000,245.000000) scale(0.100000,-0.100000)"
fill="#000000" stroke="none">
<path d="M1085 2436 c-265 -61 -461 -253 -542 -531 -9 -29 -17 -114 -20 -205
-4 -146 -1 -184 56 -643 34 -269 61 -493 61 -498 0 -5 11 -11 25 -15 l25 -6
-21 -30 -21 -29 130 3 131 3 12 -42 12 -43 288 0 288 0 12 40 12 40 129 0 129
0 -21 27 -21 28 25 8 c14 5 26 12 26 17 0 5 27 228 61 497 57 456 60 498 56
643 -5 176 -20 239 -90 375 -31 60 -62 102 -126 166 -95 94 -174 144 -286 179
-89 28 -246 35 -330 16z m317 -613 c100 -94 217 -156 366 -194 42 -10 77 -20
78 -22 7 -7 -17 -127 -36 -183 -62 -180 -237 -354 -405 -404 -40 -12 -41 -13
-61 -88 l-20 -77 -109 0 -109 0 -20 80 c-17 64 -25 81 -41 83 -11 2 -53 19
-94 39 -91 43 -210 154 -264 245 -40 67 -80 183 -90 258 l-6 45 84 -4 c212 -8
431 99 570 280 l50 65 26 -35 c14 -20 51 -59 81 -88z"/>
<path d="M1070 1489 c0 -50 0 -50 -22 -35 -62 43 -148 -5 -148 -83 0 -58 41
-103 93 -103 22 0 46 7 58 18 17 16 19 16 19 1 0 -10 7 -17 15 -17 13 0 15 22
15 135 0 113 -2 135 -15 135 -11 0 -15 -12 -15 -51z m-17 -81 c47 -64 -36
-145 -95 -91 -23 21 -24 80 -1 105 24 27 71 20 96 -14z"/>
<path d="M1175 1446 c-47 -47 -39 -137 16 -167 36 -19 88 -13 115 12 13 12 24
26 24 31 0 14 -38 9 -44 -7 -12 -32 -106 -7 -106 28 0 3 35 7 78 9 l77 3 -2
35 c-3 73 -105 109 -158 56z m107 -23 c34 -31 23 -43 -42 -43 -33 0 -60 3 -60
8 0 4 7 18 16 30 18 26 60 29 86 5z"/>
<path d="M1360 1463 c0 -4 17 -49 37 -100 30 -76 40 -93 57 -93 18 0 27 15 53
83 17 45 34 90 38 100 5 13 2 17 -13 17 -16 0 -25 -16 -48 -80 -15 -44 -29
-78 -31 -76 -3 2 -17 37 -32 78 -17 47 -33 74 -44 76 -9 2 -17 0 -17 -5z"/>
</g>
</svg>
